<?xml version="1.0" encoding="UTF-8"?>
<svg id="a" data-name="Layer 1" xmlns="http://www.w3.org/2000/svg" viewBox="0 0 349 334">
  <defs>
    <style>
      .b {
        stroke-width: 0px;
      }
    </style>
  </defs>
  <path class="b" d="M68.3,95.42c8.69-1.99,16.48-.1,24.27,1.86,1.09-20.11,2.95-26.85,9.73-35.08.72,1.75-.57,2.82-1.3,4-13.58,22.17-3.29,55.26,11.93,67.43.52.41,1.04.83,1.57,1.23,6.51,4.93,6.38,4.81,11.92-1.02,14.86-15.63,32.84-19.81,53.28-13.77,3.31.98,4.41.79,5.36-2.8,1.73-6.56,3.99-13.01,6.48-19.32,4.62-11.71,6.75-23.48,2.19-35.81,3.14,3.26,3.82,7.29,4.06,11.51,1.63.48,1.83-1.12,2.48-1.85,6.18-6.99,14.29-8.75,23.02-8.22,10.94.67,20.95,4.78,30.31,10.1,5.65,3.21,8.76,9.78,15.06,12.49-1.64-.25-2.28-2.46-4.7-1.54,5.08,8.47,8.66,17.48,9.78,27.15,1.79,15.48-.94,30.03-11.02,42.5-1.69,2.08-.05,2.48.97,3.38,4.17,3.71,8.5,7,11.85,11.83,10.69,15.43,11.84,31.8,6.93,49.23-5.81,20.63-19.25,34-39.24,40.97-2.36.83-2.98,2.45-3.64,4.96-1.85-1.9-3.16-3.32-5.76-2.77-12.75,2.69-24.91,2.28-34.75-8.3-1.94,3.25-1.71,6.71-3.21,9.71-6.37,12.71-18.38,17.29-30.52,21.84-9.1,3.41-18.68,2.38-28.05,3.13-3.47.28-7.13-1.16-10.63-2.12-19.51-5.35-34.3-17.27-45.98-33.38-1.06-1.47-2.94-2.95-1.39-6.01,3.72,6.79,8.31,12.43,13.56,17.53,13.22,12.82,29.31,20.89,47.28,22.13,12.77.88,25.76-2.35,37.67-9.1,10.04-5.69,16.18-13.33,18.78-24.28.3-1.28.89-2.34.28-3.78-4.55-10.75-7.27-22.05-9.46-33.46-.66-3.44-2.03-2.86-4.38-1.98-18.64,6.97-35.59,3.32-50.88-8.77-2.84-2.25-4.56-2.32-7.67-.57-7.83,4.41-16.29,7.75-25.37,7.77-16.43.04-24.93,15.1-21.71,27.82.27,1.08.68,2.26-.12,3.34-5.9-8.06-1.05-22.71,10.7-30.91-9.72-1.5-18.08-5.12-25.83-10.33-14.99-10.09-23.25-23.66-24.55-42.05-.91-12.98.43-25.4,3.74-37.82,1.05-3.94,2.52-7.5,6.48-11-1.86,5.64-4.21,10.02-5.52,14.79-4.69,17.03-5.37,33.96.52,50.83,3.39,9.7,10.64,16.4,18.52,22.24,14.6,10.83,30.97,13.99,48.58,9.22,4.74-1.28,9.46-2.92,13.77-5.55,2.88-1.76,2.77-3.14.84-5.72-8.85-11.86-12.5-25.09-9.86-39.86.86-4.8,2.69-9.25,5-13.48,1.04-1.9.78-2.89-1.06-3.91-14.16-7.89-20.78-20.83-23.93-36.03-.59-2.82-2.22-4.31-4.85-5.02-5.81-1.57-11.67-2.6-17.73-1.87-1.04.12-2.22.99-3.82-1.5ZM283.56,199.8c-.28-17.35-5.23-29.24-21.87-41.02-2.37-1.67-3.97-1.65-6.54-.32-11.57,5.96-23.49,11.05-36.95,10.01-3.06-.23-3.41,1.22-3.78,3.69-2.32,15.29-9.22,27.92-22.2,36.75-2.25,1.53-2.98,3.13-2.64,5.75,1.42,10.89,3.67,21.59,7.88,31.73,3.21,7.73,9.22,12.68,17.68,13.49,36.77,3.53,67.6-19.91,68.42-60.1ZM163.09,214.49c28.81.86,48.59-21.82,49.07-44.96.58-27.97-20.2-49.43-46.9-50.11-28.22-.72-49.01,21.31-49.49,44.81-.58,28.43,20.05,50.04,47.32,50.26ZM272.75,115.97c-3.18-16.54-6.46-35.34-27.9-44.42-9.81-4.16-19.45-6.55-29.84-5.6-10.11.93-16.58,8.13-17.52,18.26-.26,2.78-.48,5.77-1.67,8.21-3.64,7.51-5.78,15.51-8.39,23.37-1.43,4.31-1.17,7.02,3.3,9.75,13.33,8.15,21.22,20.32,23.43,35.8.57,3.99,2.26,4.79,5.75,4.95,12.26.55,23.04-3.99,33.69-9.21,5.46-2.68,10.44-5.73,12.78-11.85,3.27-8.54,6.14-17.15,6.37-29.26Z"/>
  <path class="b" d="M150.04,36.64c21.02,1.03,38.4,8.53,42.2,23.57-5.4-7.36-10.33-14.1-18.66-17.38-7.62-3-15.39-5.22-23.54-6.18Z"/>
  <path class="b" d="M134.3,39.59c-8.64,3.61-16.69,8.22-24.16,13.86,6.59-7.16,14.58-11.89,24.16-13.86Z"/>
  <path class="b" d="M168.04,184c-5.37.08-9.61-1.95-13.15-5.47-1.99-1.98-2.48-4.38-.5-6.67,1.86-2.15,3.84-1.08,5.76.14,8.72,5.54,14.09,4.22,19.51-4.79.96-1.6,1.97-3.43,4.16-2.74,2.38.74,2.2,2.9,2.1,4.97-.49,9.57-10.61,13.5-17.88,14.55ZM182.94,168.44c-1.18-.11-1.41.84-1.82,1.49-4.5,7.19-9.55,9.18-17.62,6.82-1.26-.37-2.44-1-3.67-1.47-1.13-.44-1.95.04-2.43,1.04-.44.92.12,1.58.81,2.08,4.7,3.37,9.71,3.66,15.05,1.71,5.53-2.02,10.34-4.52,9.67-11.66Z"/>
  <path class="b" d="M140.55,154.46c3.2.09,6.3,3.9,6.29,7.71-.01,3.79-3.53,6.76-7.89,6.5-4.09-.24-5.81-2.68-5.69-6.62.16-4.89,2.87-7.72,7.28-7.59ZM144.41,161.48c-.32-2.23-.55-4.66-3.78-4.73-3.26-.07-4.99,1.51-4.92,4.82.05,2.54.64,4.74,3.89,4.54,2.79-.18,4.8-1.28,4.81-4.63Z"/>
  <path class="b" d="M195.88,151.76c-.26,2.9-1.98,5.42-6.03,5.5-4.09.08-6.83-2.53-6.56-6.37.22-3.21.94-6.48,5.14-6.59,4.86-.13,7.54,2.36,7.45,7.46ZM189.6,146.62c-2.78-.52-3.97.97-4.27,3.44-.34,2.78,1.04,4.36,3.73,4.77,2.76.41,4.64-1.05,4.97-3.57.38-2.94-1.54-4.45-4.43-4.64Z"/>
  <path class="b" d="M164.21,164.12c.14-2.52,1.26-4.3,3.49-4.32,2.28-.02,4.07,1.32,4.02,4.01-.04,2.44-1.66,3.57-3.79,3.75-2.5.22-3.34-1.59-3.72-3.45Z"/>
</svg>