<?xml version="1.0" encoding="UTF-8"?>
<svg id="a" xmlns="http://www.w3.org/2000/svg" viewBox="0 0 165 165">
  <defs>
    <style>
      .b {
      stroke-width: 3px;
      stroke: black;
      }
      .b {
      fill: rgba(140, 151, 72, 0.5);
      }
    </style>
  </defs>
  <path class="b"
    d="M84.49.99h12.92c6.8,1.73,12.86,5.07,19.04,8.28,8.67,4.5,17.68,8.4,27.75,8.55,7.44.11,11.85,4.49,11.59,12.02-.53,15.24,2.48,29.88,7.21,44.24,1.76,5.35,2.22,10.35-.17,15.88-1.97,4.57-5.51,8.92-4.4,14.47.68,3.4.07,6.59-1.2,9.71-1.98,4.89-3.5,9.92-5.92,14.69-3.45,6.81-3.02,7.12-9.71,10.13-9.61,4.33-17.7,11.19-27.61,15.29-9.01,3.73-17.55,8.54-27.42,9.37-12.24,1.03-24.53,1.1-36.12-3.82-4.83-2.05-9.17-5.26-14.48-6.24-2.74-.51-3.98-1.89-3.43-4.85.7-3.85-1.38-4.84-4.98-5.59-8.12-1.68-15.58-4.84-19.99-12.7-3.36-5.99-5.5-12.36-6.57-19.11,0-4.64,0-9.28,0-13.92,1.24-4.28,2.64-8.52,3.69-12.84,4.24-17.54,12.39-33.29,21.71-48.56,4.25-6.97,11.63-10.67,16.71-16.69,5.94-7.05,13.28-11.65,22.02-14.5,6.34-2.07,12.93-2.48,19.36-3.83Z" />
</svg>